<svg xmlns="http://www.w3.org/2000/svg" viewBox="0 0 345.84 345.84"><defs><style>.cls-1{fill:#fff;}</style></defs><g id="Layer_2" data-name="Layer 2"><g id="Layer_1-2" data-name="Layer 1"><path d="M345.84,171.89v1q0,7.22-.58,14.29a173.06,173.06,0,0,1-102.8,144.08c-2.88,1.26-5.81,2.46-8.77,3.57a173.84,173.84,0,0,1-83.89,9.44c-2.83-.37-5.63-.82-8.41-1.33A173,173,0,0,1,.26,182.57Q0,178.48,0,174.34c0-.47,0-.94,0-1.42A172.14,172.14,0,0,1,26.41,81q2.47-3.94,5.17-7.75A173.36,173.36,0,0,1,115.83,9.65q5-1.74,10.09-3.18a173.65,173.65,0,0,1,116.54,8.08q3.85,1.69,7.6,3.57A173,173,0,0,1,345.84,171.89Z"/><path class="cls-1" d="M345.84,171.89v1q0,7.22-.58,14.29l-41.38,60c-.07.1-.15.19-.22.28l-.07.09a3.57,3.57,0,0,1-.53.5l-.06.05-31,23.78a3.93,3.93,0,0,1-1,.57l-69.58,26.82,41.08,32c-2.88,1.26-5.81,2.46-8.77,3.57l-20.27-15.8L149.8,344.3l-1.16.46a4.14,4.14,0,0,1-1.51.29,4.06,4.06,0,0,1-1.6-.33L141.39,343l-31-13.08a4.11,4.11,0,1,1,3.2-7.57l33.57,14.18,58.72-23.3-15-11.65-72.49-34.71L72.28,291.3a4.12,4.12,0,0,1-3.74.06l-26.45-13a4.12,4.12,0,0,1-2.25-3.13L26.59,179.9.26,182.57Q0,178.48,0,174.34l29.69-3a4.11,4.11,0,0,1,4.49,3.52L47.68,272l22.6,11.11L114.4,259.7l3.74-66.59L96.43,172.23a4.12,4.12,0,0,1-1-4.52l31.33-76.77L26.41,81q2.47-3.94,5.17-7.75l54.79,5.41,29.46-69q5-1.74,10.09-3.18a4.13,4.13,0,0,1-.31,1.22L94.94,79.53,133.1,83.3a4.1,4.1,0,0,1,3.4,5.64l-32.36,79.3,18.17,17.48,56-55.25a4.12,4.12,0,1,1,5.78,5.86l-57.73,56.94-3.73,66.46,70.68,33.83L267.45,265l28-21.47L228,87.57l-55.76,7.75a4.11,4.11,0,0,1-1.13-8.14l56.07-7.79,15.3-64.84q3.85,1.69,7.6,3.57L234.82,82.69,301.33,236.4Z"/></g></g></svg>