<svg xmlns="http://www.w3.org/2000/svg" viewBox="0 0 1472.91 345.84"><defs><style>.cls-1{opacity:0.95;}.cls-2{fill:#fff;}</style></defs><g id="Layer_2" data-name="Layer 2"><g id="Layer_1-2" data-name="Layer 1"><path class="cls-1" d="M516.41,139.43c0,25-18.1,40.15-48,40.15H439.89v34.88H423.44V99.27h44.92C498.31,99.27,516.41,114.41,516.41,139.43Zm-16.46,0c0-16.46-11-25.84-32.09-25.84h-28v51.67h28C488.93,165.26,500,155.88,500,139.43Z"/><path class="cls-1" d="M616.45,176.12H545.69c2,15.3,14.32,25.51,31.6,25.51,10.2,0,18.76-3.46,25.17-10.54l8.72,10.21c-7.89,9.21-19.91,14.15-34.39,14.15-28.14,0-46.89-18.6-46.89-44.6,0-25.83,18.59-44.42,43.77-44.42s43.11,18.1,43.11,44.92C616.78,172.66,616.61,174.64,616.45,176.12Zm-70.76-11.35h55.95c-1.65-14.65-12.67-25-28-25C558.53,139.75,547.34,150,545.69,164.77Z"/><path class="cls-1" d="M729,170.85c0,26.83-18.59,44.6-44.1,44.6-12.34,0-23.2-4.77-30.44-14.15v45.08h-15.8V127.25H653.8v13.82c7.08-9.71,18.26-14.64,31.1-14.64C710.41,126.43,729,144.2,729,170.85Zm-16,0c0-18.43-12.67-30.6-29.46-30.6-16.62,0-29.29,12.17-29.29,30.6,0,18.6,12.67,30.78,29.29,30.78C700.37,201.63,713,189.45,713,170.85Z"/><path class="cls-1" d="M841.22,170.85c0,26.83-18.6,44.6-44.1,44.6-12.34,0-23.2-4.77-30.44-14.15v45.08h-15.8V127.25H766v13.82c7.08-9.71,18.26-14.64,31.1-14.64C822.62,126.43,841.22,144.2,841.22,170.85Zm-16,0c0-18.43-12.67-30.6-29.46-30.6-16.62,0-29.29,12.17-29.29,30.6,0,18.6,12.67,30.78,29.29,30.78C812.59,201.63,825.26,189.45,825.26,170.85Z"/><path class="cls-1" d="M941.59,176.12H870.83c2,15.3,14.32,25.51,31.6,25.51,10.2,0,18.76-3.46,25.18-10.54l8.72,10.21c-7.9,9.21-19.91,14.15-34.39,14.15-28.14,0-46.9-18.6-46.9-44.6,0-25.83,18.59-44.42,43.77-44.42s43.11,18.1,43.11,44.92C941.92,172.66,941.76,174.64,941.59,176.12Zm-70.76-11.35h55.95c-1.64-14.65-12.67-25-28-25C883.67,139.75,872.48,150,870.83,164.77Z"/><path class="cls-1" d="M1010.7,126.43v15.3a27,27,0,0,0-3.62-.17c-17,0-27.48,10.37-27.48,29.46v43.44H963.8V127.25h15.14v14.64C984.54,131.69,995.4,126.43,1010.7,126.43Z"/><path class="cls-1" d="M1029.45,206.23,1038,187.8c7.9,5.1,19.91,8.56,30.77,8.56,11.85,0,16.29-3.13,16.29-8.06,0-14.48-53.48.33-53.48-35.05,0-16.79,15.14-28.63,41-28.63,12.17,0,25.67,2.79,34.06,7.73l-8.56,18.26a50.89,50.89,0,0,0-25.5-6.58c-11.52,0-16.46,3.62-16.46,8.23,0,15.14,53.48.49,53.48,35.38,0,16.45-15.3,28.14-41.8,28.14C1052.82,215.78,1037.68,211.66,1029.45,206.23Z"/><path class="cls-1" d="M1265.91,125.93l-32.09,88.53h-24.68l-19.91-55-20.57,55H1144l-31.92-88.53h24.19l20.89,59.9,21.72-59.9h21.73l21.06,59.9,21.55-59.9Z"/><path class="cls-1" d="M1353.28,163.94v50.52h-24v-11c-4.77,8.06-14,12.34-27,12.34-20.73,0-33.07-11.52-33.07-26.83,0-15.63,11-26.49,38-26.49h20.4c0-11-6.58-17.44-20.4-17.44-9.38,0-19.09,3.13-25.51,8.23l-9.21-17.94c9.71-6.91,24-10.69,38.18-10.69C1337.65,124.62,1353.28,137.12,1353.28,163.94Zm-25.67,22.55v-9.05H1310c-12,0-15.8,4.44-15.8,10.36,0,6.42,5.43,10.7,14.48,10.7C1317.25,198.5,1324.65,194.55,1327.61,186.49Z"/><path class="cls-1" d="M1472.91,170.2c0,27.81-19.25,45.58-44.1,45.58-11,0-20.08-3.46-26.66-10.7v41.3h-25.67V125.93H1401v10.2c6.42-7.73,16-11.51,27.81-11.51C1453.66,124.62,1472.91,142.39,1472.91,170.2Zm-26,0c0-15.31-9.71-24.52-22.54-24.52s-22.55,9.21-22.55,24.52,9.71,24.51,22.55,24.51S1446.91,185.5,1446.91,170.2Z"/><path d="M345.84,171.89v1q0,7.22-.58,14.29a173.06,173.06,0,0,1-102.8,144.08c-2.88,1.26-5.81,2.46-8.77,3.57a173.84,173.84,0,0,1-83.89,9.44c-2.83-.37-5.63-.82-8.41-1.33A173,173,0,0,1,.26,182.57Q0,178.48,0,174.34c0-.47,0-.94,0-1.42A172.14,172.14,0,0,1,26.41,81q2.47-3.94,5.17-7.75A173.36,173.36,0,0,1,115.83,9.65q5-1.74,10.09-3.18a173.65,173.65,0,0,1,116.54,8.08q3.85,1.69,7.6,3.57A173,173,0,0,1,345.84,171.89Z"/><path class="cls-2" d="M345.84,171.89v1q0,7.22-.58,14.29l-41.38,60c-.07.1-.15.19-.22.28l-.07.09a3.57,3.57,0,0,1-.53.5l-.06.05-31,23.78a3.93,3.93,0,0,1-1,.57l-69.58,26.82,41.08,32c-2.88,1.26-5.81,2.46-8.77,3.57l-20.27-15.8L149.8,344.3l-1.16.46a4.14,4.14,0,0,1-1.51.29,4.06,4.06,0,0,1-1.6-.33L141.39,343l-31-13.08a4.11,4.11,0,1,1,3.2-7.57l33.57,14.18,58.72-23.3-15-11.65-72.49-34.71L72.28,291.3a4.12,4.12,0,0,1-3.74.06l-26.45-13a4.12,4.12,0,0,1-2.25-3.13L26.59,179.9.26,182.57Q0,178.48,0,174.34l29.69-3a4.11,4.11,0,0,1,4.49,3.52L47.68,272l22.6,11.11L114.4,259.7l3.74-66.59L96.43,172.23a4.12,4.12,0,0,1-1-4.52l31.33-76.77L26.41,81q2.47-3.94,5.17-7.75l54.79,5.41,29.46-69q5-1.74,10.09-3.18a4.13,4.13,0,0,1-.31,1.22L94.94,79.53,133.1,83.3a4.1,4.1,0,0,1,3.4,5.64l-32.36,79.3,18.17,17.48,56-55.25a4.12,4.12,0,1,1,5.78,5.86l-57.73,56.94-3.73,66.46,70.68,33.83L267.45,265l28-21.47L228,87.57l-55.76,7.75a4.11,4.11,0,0,1-1.13-8.14l56.07-7.79,15.3-64.84q3.85,1.69,7.6,3.57L234.82,82.69,301.33,236.4Z"/></g></g></svg>